<?xml version="1.0" standalone="no"?>
<!DOCTYPE svg PUBLIC "-//W3C//DTD SVG 20010904//EN"
 "http://www.w3.org/TR/2001/REC-SVG-20010904/DTD/svg10.dtd">
<svg version="1.0" xmlns="http://www.w3.org/2000/svg"
 width="300.000000pt" height="300.000000pt" viewBox="0 0 300.000000 300.000000"
 preserveAspectRatio="xMidYMid meet">
<metadata>
Created by potrace 1.11, written by Peter Selinger 2001-2013
</metadata>
<g transform="translate(0.000000,300.000000) scale(0.100000,-0.100000)"
fill="#000000" stroke="none">
<path d="M1384 2986 c-125 -30 -210 -132 -232 -276 -7 -48 -10 -54 -27 -50
-11 2 -60 4 -110 4 -76 0 -98 -4 -145 -26 -30 -14 -70 -40 -88 -58 -34 -34
-86 -134 -97 -185 -12 -57 -19 -100 -19 -122 -1 -13 -5 -23 -11 -24 -118 -9
-253 -85 -322 -184 -110 -156 -157 -573 -108 -945 16 -119 70 -280 138 -414
196 -385 568 -645 987 -691 63 -7 245 -8 269 -1 9 3 39 7 66 11 371 46 746
321 928 680 52 104 99 228 112 295 3 14 7 36 10 50 20 91 28 182 28 300 0 58
-3 148 -7 200 -5 52 -10 133 -11 180 -5 119 -14 184 -36 252 -69 216 -213 363
-360 367 -23 1 -28 7 -34 39 -23 126 -135 248 -257 279 -37 9 -161 11 -185 2
-26 -10 -31 -4 -39 47 -12 78 -61 160 -130 217 -58 49 -224 76 -320 53z m183
-161 c42 -10 87 -59 106 -118 13 -40 16 -102 15 -368 0 -292 1 -322 17 -340
23 -24 76 -25 98 -1 14 15 17 52 19 237 4 244 7 258 66 275 46 12 131 5 169
-14 36 -19 80 -68 95 -105 6 -15 11 -138 12 -278 1 -231 3 -253 20 -272 26
-29 70 -27 94 4 17 21 19 41 20 176 0 116 3 154 13 160 38 24 120 -4 171 -58
57 -60 96 -204 103 -378 3 -55 8 -134 11 -175 23 -251 4 -464 -58 -639 -113
-321 -347 -570 -649 -689 -247 -98 -541 -102 -779 -10 -271 105 -486 301 -613
559 -48 99 -94 226 -103 287 -3 20 -7 43 -9 49 -27 81 -24 503 5 628 5 22 9
41 9 43 -1 12 37 124 52 153 35 69 142 139 209 135 l25 -1 0 -322 c1 -300 2
-323 19 -342 24 -27 68 -27 92 0 18 20 19 42 20 408 1 466 5 505 52 593 35 66
84 90 176 84 68 -5 89 -14 107 -48 19 -35 20 -61 20 -326 l-1 -263 24 -24 c13
-13 32 -22 42 -20 11 2 24 4 31 4 34 2 38 40 39 441 1 217 4 412 8 433 11 65
48 113 95 123 14 3 31 7 36 8 16 4 88 -1 122 -9z"/>
<path d="M826 1083 c-60 -18 -136 -92 -153 -149 -24 -79 34 -138 99 -101 28
16 28 16 57 -26 107 -156 319 -289 500 -313 25 -3 49 -8 52 -9 17 -11 197 -4
268 10 113 22 255 88 347 161 51 40 140 139 164 183 7 11 12 11 31 -3 33 -22
62 -20 87 7 67 71 -31 216 -165 244 -15 3 -53 6 -83 5 -46 -1 -59 -6 -77 -27
-28 -32 -29 -55 -2 -89 17 -21 29 -26 65 -26 l45 0 -18 -32 c-10 -18 -52 -67
-93 -108 -120 -120 -268 -180 -458 -184 -222 -6 -435 97 -547 264 -37 55 -38
72 -5 63 51 -14 101 31 92 84 -8 51 -113 74 -206 46z"/>
</g>
</svg>
